<svg width="33" height="32" viewBox="0 0 33 32" fill="none" xmlns="http://www.w3.org/2000/svg">
<path fill-rule="evenodd" clip-rule="evenodd" d="M16.5999 27C22.675 27 27.5999 22.0751 27.5999 16C27.5999 9.92487 22.675 5 16.5999 5C10.5247 5 5.59985 9.92487 5.59985 16C5.59985 22.0751 10.5247 27 16.5999 27ZM19.553 17.3041C19.4738 17.7056 19.229 18.0552 18.8788 18.2669L12.9617 21.845C12.6375 22.041 12.2347 21.7589 12.3081 21.3872L13.6466 14.6032C13.7258 14.2017 13.9705 13.8522 14.3207 13.6405L20.2378 10.0624C20.562 9.86636 20.9648 10.1484 20.8915 10.5201L19.553 17.3041Z" fill="white"/>
<path d="M15.2125 17.9255L17.4755 16.5571L17.9875 13.9624L15.7244 15.3309L15.2125 17.9255Z" fill="white"/>
</svg>
