<svg width="32" height="32" viewBox="0 0 32 32" fill="none" xmlns="http://www.w3.org/2000/svg">
<path opacity="0.75" fill-rule="evenodd" clip-rule="evenodd" d="M15.3655 5.22669C15.7341 4.92444 16.2649 4.92444 16.6335 5.22667L27.3672 14.0267C27.694 14.2945 27.8171 14.7388 27.6749 15.1367C27.5326 15.5345 27.1557 15.8 26.7332 15.8H25.1792L24.3845 24.4852C24.306 25.3433 23.5864 26 22.7248 26H9.27501C8.41338 26 7.69379 25.3432 7.61527 24.4852L6.82055 15.8H5.26617C4.84368 15.8 4.46678 15.5345 4.32454 15.1367C4.18231 14.7388 4.30543 14.2946 4.63214 14.0267L15.3655 5.22669ZM15.9995 7.29312L8.0631 13.8H8.6459L9.57923 24H14.9995V18.8759C14.9995 18.5077 15.298 18.2092 15.6662 18.2092H16.3328C16.701 18.2092 16.9995 18.5077 16.9995 18.8759V24H22.4205L23.3539 13.8H23.9362L15.9995 7.29312Z" fill="white"/>
</svg>
