<svg width="1em" data-e2e="" height="1em" viewBox="0 0 48 48" fill="currentColor" xmlns="http://www.w3.org/2000/svg"><path fill-rule="evenodd" clip-rule="evenodd" d="M12.001 26.9998H35.7584L23.5867 39.1714C23.1962 39.5619 23.1962 40.1951 23.5867 40.5856L26.4151 43.414C26.8057 43.8046 27.4388 43.8046 27.8294 43.414L45.1223 26.1212C46.2938 24.9496 46.2938 23.0501 45.1223 21.8785L27.8294 4.58562C27.4388 4.19509 26.8057 4.19509 26.4151 4.58562L23.5867 7.41404C23.1962 7.80457 23.1962 8.43773 23.5867 8.82826L35.7582 20.9998H12.001C11.4487 20.9998 11.001 21.4475 11.001 21.9998V25.9998C11.001 26.552 11.4487 26.9998 12.001 26.9998ZM8.00098 7.99976C8.00098 7.44747 7.55326 6.99976 7.00098 6.99976L3.00098 6.99976C2.44869 6.99976 2.00098 7.44747 2.00098 7.99976V39.9998C2.00098 40.552 2.44869 40.9998 3.00098 40.9998H7.00098C7.55326 40.9998 8.00098 40.552 8.00098 39.9998L8.00098 7.99976Z"></path></svg>