<?xml version="1.0" standalone="no"?>
<!DOCTYPE svg PUBLIC "-//W3C//DTD SVG 20010904//EN"
 "http://www.w3.org/TR/2001/REC-SVG-20010904/DTD/svg10.dtd">
<svg version="1.0" xmlns="http://www.w3.org/2000/svg"
 width="1024.000000pt" height="1024.000000pt" viewBox="0 0 1024.000000 1024.000000"
 preserveAspectRatio="xMidYMid meet">

<g transform="translate(0.000000,1024.000000) scale(0.100000,-0.100000)"
fill="#000000" stroke="none">
<path d="M4876 7924 c-64 -20 -137 -92 -159 -159 -13 -37 -17 -86 -17 -212 l0
-163 445 0 445 0 0 173 c0 160 -2 176 -24 223 -29 63 -95 120 -160 139 -70 21
-460 20 -530 -1z"/>
<path d="M4700 6616 l0 -696 423 -1 c232 0 432 -2 445 -3 l22 -3 0 694 0 693
-429 0 c-236 0 -436 3 -445 6 -15 6 -16 -59 -16 -690z m710 -11 l0 -525 -265
2 -266 3 -2 522 -2 523 268 0 267 0 0 -525z"/>
<path d="M4463 6889 c-318 -126 -617 -400 -757 -692 -111 -232 -135 -553 -60
-784 90 -275 284 -513 527 -643 149 -80 198 -92 787 -190 608 -101 759 -128
807 -146 57 -21 118 -91 133 -153 21 -90 -25 -188 -111 -231 l-39 -20 0 -505
0 -505 67 26 c245 91 499 284 655 494 104 141 191 328 224 485 22 101 29 275
15 378 -50 371 -330 734 -656 850 -96 33 -164 47 -580 117 -785 132 -892 151
-932 166 -53 19 -107 80 -123 140 -11 39 -11 53 4 100 16 50 59 106 99 129 16
9 17 41 15 511 l-3 502 -72 -29z"/>
<path d="M5750 6421 l0 -499 28 -7 c15 -3 233 -4 483 -3 l456 3 -17 60 c-39
141 -132 316 -232 439 -181 222 -404 381 -695 497 l-23 9 0 -499z"/>
<path d="M4702 5708 c3 -22 18 -26 338 -80 184 -31 365 -60 403 -65 l67 -9 0
88 0 88 -406 0 -405 0 3 -22z"/>
<path d="M4833 4318 l4 -103 337 -3 336 -3 0 54 0 54 -37 7 c-175 29 -607 96
-624 96 -20 0 -21 -4 -16 -102z"/>
<path d="M3580 4013 c0 -46 118 -292 197 -411 70 -107 277 -316 385 -390 85
-58 261 -151 332 -175 l46 -16 0 499 0 500 -480 2 c-373 2 -480 0 -480 -9z"/>
<path d="M4700 3557 l0 -463 86 -159 c48 -88 133 -245 189 -350 56 -104 118
-218 136 -252 32 -58 49 -77 49 -53 0 6 38 81 84 168 119 225 234 439 266 497
15 28 38 70 51 95 l24 45 5 468 5 467 -447 0 -448 0 0 -463z m710 -77 l0 -360
-265 0 -265 0 0 360 0 360 265 0 265 0 0 -360z m-80 -501 c0 -11 -110 -226
-158 -307 l-25 -43 -29 53 c-43 77 -158 298 -158 303 0 3 83 5 185 5 125 0
185 -3 185 -11z"/>
<path d="M27 103 c-25 -4 -27 -8 -27 -54 0 -48 1 -49 30 -49 30 0 30 1 30 55
0 30 -1 54 -2 54 -2 -1 -15 -4 -31 -6z"/>
</g>
</svg>
