<svg width="33" height="32" viewBox="0 0 33 32" fill="none" xmlns="http://www.w3.org/2000/svg">
<path opacity="0.75" fill-rule="evenodd" clip-rule="evenodd" d="M16.3998 7.66666C14.3747 7.66666 12.7331 9.30829 12.7331 11.3333C12.7331 13.3584 14.3747 15 16.3998 15C18.4248 15 20.0664 13.3584 20.0664 11.3333C20.0664 9.30829 18.4248 7.66666 16.3998 7.66666ZM10.7331 11.3333C10.7331 8.20372 13.2701 5.66666 16.3998 5.66666C19.5294 5.66666 22.0664 8.20372 22.0664 11.3333C22.0664 14.4629 19.5294 17 16.3998 17C13.2701 17 10.7331 14.4629 10.7331 11.3333ZM16.3998 20.3333C13.1636 20.3333 10.4388 22.5303 9.63824 25.5141C9.54283 25.8697 9.20223 26.1161 8.83911 26.0551L8.18163 25.9448C7.81852 25.8839 7.57111 25.539 7.65888 25.1814C8.62383 21.2499 12.1703 18.3333 16.3998 18.3333C20.6292 18.3333 24.1757 21.2499 25.1407 25.1814C25.2284 25.539 24.981 25.8839 24.6179 25.9448L23.9604 26.0551C23.5973 26.1161 23.2567 25.8697 23.1613 25.5141C22.3608 22.5303 19.636 20.3333 16.3998 20.3333Z" fill="white"/>
</svg>
