<?xml version="1.0" standalone="no"?>
<!DOCTYPE svg PUBLIC "-//W3C//DTD SVG 20010904//EN"
 "http://www.w3.org/TR/2001/REC-SVG-20010904/DTD/svg10.dtd">
<svg version="1.0" xmlns="http://www.w3.org/2000/svg"
 width="50pt" height="50pt" viewBox="0 0 1024.000000 1024.000000"
 preserveAspectRatio="xMidYMid meet">

<g transform="translate(0.000000,1024.000000) scale(0.100000,-0.100000)"
fill="#000000" stroke="none">
<path d="M0 5120 l0 -5120 5120 0 5120 0 0 5120 0 5120 -5120 0 -5120 0 0
-5120z m5290 3600 c395 -28 793 -130 1170 -300 162 -72 264 -129 424 -234
l138 -91 -220 -5 c-198 -5 -222 -7 -241 -24 -27 -24 -27 -54 1 -83 l21 -23
304 0 304 0 72 -57 c108 -85 187 -155 187 -164 0 -5 -85 -9 -190 -9 -110 1
-198 -3 -209 -9 -29 -16 -36 -60 -13 -90 l19 -26 270 -3 270 -2 48 -61 48 -61
-274 3 -274 4 -50 -27 c-134 -71 -225 -241 -238 -443 l-2 -40 -13 58 c-69 302
-384 478 -638 356 -108 -51 -181 -157 -151 -218 12 -26 13 -26 142 -27 200 -2
307 -39 421 -147 89 -83 99 -102 35 -71 -58 29 -166 54 -236 54 -208 0 -474
-160 -385 -232 17 -14 43 -17 148 -18 267 -1 495 -85 626 -230 31 -34 36 -47
36 -88 0 -26 -5 -54 -11 -62 -8 -11 -9 -7 -4 18 4 20 3 32 -4 32 -6 0 -11 -5
-11 -12 0 -6 -3 -9 -6 -6 -3 4 3 19 12 34 13 19 15 29 7 31 -7 3 -9 11 -6 19
3 8 2 14 -3 13 -17 -4 -44 13 -38 23 4 6 -1 8 -14 4 -15 -5 -24 -1 -32 14 -6
11 -8 25 -5 30 3 6 -1 10 -9 10 -9 0 -16 3 -16 8 0 4 -26 8 -57 9 -32 0 -132
8 -223 16 -99 9 -169 12 -175 6 -5 -5 -26 -9 -47 -9 -41 0 -51 -17 -23 -40 12
-10 18 -10 30 0 13 10 18 11 28 1 9 -10 8 -11 -5 -6 -12 5 -20 1 -24 -9 -5
-12 -10 -14 -19 -6 -18 15 -117 9 -111 -7 3 -8 -1 -10 -11 -6 -11 5 -14 3 -9
-6 5 -8 -4 -29 -22 -54 -16 -23 -33 -52 -37 -65 -4 -13 -9 -21 -12 -18 -3 2 2
19 10 36 9 17 14 39 11 48 -5 15 -4 15 5 2 9 -13 12 -12 17 8 4 12 11 22 16
22 5 0 6 5 3 11 -5 7 -13 5 -24 -5 -15 -14 -17 -13 -16 10 0 14 9 32 19 40 24
17 40 18 30 2 -5 -8 -2 -9 12 -3 10 4 29 8 41 8 13 -1 20 3 17 8 -3 5 3 9 12
9 12 0 15 3 8 10 -6 6 -119 10 -289 10 -255 1 -325 -2 -346 -16 -4 -2 -37 17
-74 42 -36 26 -96 60 -133 76 l-67 29 120 -5 c90 -3 150 -12 238 -35 65 -17
128 -31 140 -31 26 0 67 38 67 62 0 67 -93 150 -205 184 -76 23 -238 23 -310
0 -27 -8 -51 -14 -52 -12 -7 7 84 68 144 97 35 16 101 39 148 51 86 21 135 47
135 73 0 7 -11 27 -25 43 -62 74 -274 68 -390 -11 -44 -30 -112 -108 -131
-152 -13 -28 -13 -25 -7 30 14 118 10 165 -16 186 -48 39 -131 10 -131 -45 0
-26 28 -109 59 -176 11 -25 21 -56 21 -70 0 -24 -1 -23 -16 7 -28 57 -129 158
-191 190 -105 56 -243 65 -340 23 -44 -19 -59 -45 -49 -85 8 -33 32 -44 164
-76 110 -27 227 -78 309 -134 43 -29 42 -30 -12 -10 -84 30 -274 11 -387 -39
-76 -34 -131 -77 -179 -141 -35 -46 -43 -65 -45 -106 -1 -28 -5 -53 -8 -57 -4
-3 -5 22 -3 55 l3 61 -63 0 c-35 0 -63 -4 -63 -9 0 -5 5 -9 12 -9 6 0 3 -7 -8
-16 -10 -8 -13 -13 -6 -9 16 8 15 -7 -2 -31 -8 -10 -18 -16 -22 -11 -4 4 -2 7
4 7 7 0 12 3 12 8 0 4 -27 7 -59 7 -44 0 -64 5 -80 19 -12 11 -21 15 -21 10 0
-5 -7 -1 -15 10 -8 11 -20 16 -30 12 -11 -4 -14 -2 -9 6 5 8 1 9 -12 4 -16 -6
-356 -9 -388 -3 -7 1 -12 -31 -14 -105 -1 -60 -7 -108 -12 -108 -21 0 -4 757
18 796 4 8 36 -40 87 -134 44 -80 100 -173 124 -207 108 -148 282 -295 350
-295 64 0 76 52 41 178 -60 215 -225 405 -455 526 l-70 36 54 -6 c119 -14 299
-82 455 -172 164 -94 190 -101 226 -54 18 22 21 35 16 71 -8 57 -36 101 -99
154 -124 105 -228 138 -444 140 -78 1 -139 5 -135 9 24 23 148 51 260 58 102
6 128 11 151 28 l29 21 23 -25 23 -25 314 3 314 3 24 28 c17 20 23 36 18 50
-15 53 -11 52 -361 52 -209 0 -328 -4 -330 -10 -13 -36 -21 -38 -53 -12 -23
19 -43 27 -71 27 -22 0 -38 4 -35 9 10 15 146 68 252 99 72 20 100 33 102 46
5 24 -16 46 -66 68 -69 31 -139 38 -224 23 -155 -27 -286 -120 -468 -335 -34
-41 27 57 79 125 25 33 94 112 153 175 125 133 154 182 141 237 -18 78 -117
102 -206 50 -93 -55 -190 -220 -247 -419 l-34 -117 -26 67 c-14 37 -46 96 -70
132 -56 83 -182 214 -238 247 -41 24 -42 26 -26 44 9 10 41 35 70 55 53 36 55
37 69 18 27 -36 133 -279 171 -392 l38 -113 17 101 c39 223 32 403 -19 508
-15 30 -17 44 -8 51 26 21 251 128 371 176 479 192 998 278 1475 245z m-2354
-930 c107 -46 248 -131 314 -190 l45 -40 -84 41 c-137 66 -211 82 -393 83 -87
1 -158 2 -158 3 0 7 162 143 171 143 7 0 54 -18 105 -40z m-190 -345 c127 -17
267 -43 414 -77 l94 -21 -82 -28 c-244 -82 -401 -225 -480 -437 -28 -75 -36
-201 -15 -223 21 -21 72 -12 126 23 29 18 160 139 292 268 132 130 253 246
269 258 35 27 50 28 38 5 -15 -30 -60 -230 -86 -384 -30 -176 -56 -419 -57
-537 -1 -94 -16 -174 -18 -96 -1 23 -3 63 -6 90 -3 39 -3 43 4 19 7 -22 8 -11
5 40 -6 105 -16 165 -25 165 -5 0 -9 12 -8 28 l1 27 8 -25 c7 -23 8 -23 9 -3
1 12 7 23 14 26 39 14 -26 22 -186 23 -165 1 -170 0 -57 -5 124 -6 125 -6 45
-11 -45 -3 -103 -1 -130 4 -28 4 -151 10 -275 12 -135 2 -233 8 -245 14 -15 8
-46 8 -105 2 -86 -10 -324 -7 -342 4 -6 4 -8 -2 -3 -17 4 -15 3 -19 -3 -11 -6
9 -13 0 -22 -30 -8 -24 -12 -49 -11 -57 1 -7 -2 -10 -8 -6 -14 8 -14 -15 -1
-35 8 -12 10 -12 10 -1 0 8 2 12 5 10 2 -3 1 -16 -2 -29 l-6 -24 -9 25 c-9 23
-10 23 -20 5 -8 -15 -7 -22 6 -32 10 -6 13 -15 8 -18 -6 -3 -13 1 -16 10 -3 8
-10 13 -16 9 -5 -3 2 25 16 62 14 37 35 93 46 123 12 30 47 110 79 178 l58
122 239 0 c227 0 241 1 266 21 31 24 35 68 8 92 -15 14 -51 17 -230 19 l-212
3 73 111 c75 113 166 233 220 292 30 31 33 32 118 32 49 0 140 -7 205 -15z
m5113 -170 c81 -102 186 -268 247 -387 l24 -46 -184 -4 c-164 -3 -186 -5 -205
-22 -27 -25 -27 -70 1 -96 21 -19 34 -20 238 -20 l216 0 18 -37 c18 -37 66
-161 66 -170 0 -2 -103 -3 -229 -2 -126 0 -235 -3 -243 -7 -29 -19 -36 -48
-23 -88 7 -21 16 -41 20 -44 4 -4 117 -5 251 -3 277 3 287 1 301 -66 9 -47 8
-44 18 -66 4 -11 3 -23 -4 -30 -8 -8 -11 -6 -11 10 0 12 -4 24 -9 27 -5 3 -8
14 -6 24 1 9 0 11 -2 4 -3 -7 -8 -10 -13 -7 -4 3 -6 -5 -3 -17 4 -20 3 -21 -7
-5 -6 9 -16 17 -23 17 -7 0 -6 -4 3 -10 10 -7 -9 -10 -62 -10 -51 0 -78 -4
-78 -11 0 -8 29 -10 95 -7 81 3 95 2 95 -12 0 -13 -24 -15 -166 -17 -203 -3
-207 -5 -210 -89 -1 -32 1 -53 3 -47 3 10 10 10 25 2 12 -7 93 -10 211 -10
106 1 197 -2 203 -6 10 -7 34 -87 34 -113 0 -7 -7 -10 -15 -6 -8 3 -15 2 -15
-2 0 -10 -1458 -15 -1462 -5 -2 4 0 44 3 88 6 87 12 83 9 -7 -1 -48 1 -57 19
-63 29 -9 161 -4 161 7 0 4 5 8 11 8 5 0 8 -3 6 -7 -8 -13 64 -14 79 -2 7 6
19 7 25 3 7 -4 9 -3 6 2 -3 6 -2 16 3 24 7 11 11 8 20 -14 10 -26 14 -28 48
-23 25 5 32 3 22 -3 -11 -7 -3 -10 28 -10 24 0 41 3 39 8 -3 4 26 6 65 5 52
-1 67 2 59 10 -16 16 -14 27 4 21 8 -4 15 -12 15 -19 0 -12 19 -14 76 -6 7 0
15 12 18 26 5 18 11 23 23 18 15 -6 14 -7 -3 -14 -13 -5 -14 -8 -4 -8 11 -1
12 -3 2 -9 -7 -5 6 -8 32 -8 30 1 41 4 35 12 -6 7 -1 10 14 8 12 -1 28 -3 35
-3 7 -1 10 -5 7 -11 -3 -5 1 -10 9 -10 9 0 16 7 16 15 0 14 3 14 23 1 21 -14
117 -21 217 -18 42 2 43 3 27 19 -13 13 -20 14 -28 6 -8 -8 -20 -8 -34 -3 -13
5 -26 6 -31 2 -4 -4 -4 -2 -1 4 3 6 32 12 63 13 31 1 61 4 66 7 5 3 15 0 23
-6 9 -7 41 -10 85 -8 41 2 72 -1 74 -7 2 -5 13 0 24 12 12 12 30 24 40 27 10
4 19 12 19 19 0 9 -46 12 -191 12 -105 0 -199 4 -209 8 -13 6 -22 3 -31 -9
-16 -21 -40 -9 -30 15 11 25 14 117 3 100 -10 -16 -12 -8 -3 15 3 9 10 13 15
10 12 -7 12 13 0 34 -6 11 -4 29 4 50 l14 32 91 0 c71 0 92 3 96 15 8 19 96
22 93 3 -3 -27 1 -48 11 -48 6 0 10 14 10 30 0 17 5 30 10 30 6 0 10 4 10 9 0
4 -42 9 -92 10 -51 0 -129 6 -173 11 -48 6 -107 7 -147 2 -42 -5 -65 -5 -61 1
3 5 0 7 -8 5 -8 -3 -21 7 -31 23 -19 32 -40 102 -28 94 5 -3 11 4 15 15 8 25
40 43 65 35 10 -3 21 -1 25 5 4 7 39 8 98 5 188 -11 288 -12 293 -4 3 5 -1 9
-8 9 -9 0 -9 3 2 10 11 7 11 10 2 10 -7 0 -11 4 -8 8 3 5 -4 21 -15 38 -15 24
-19 25 -19 10 0 -20 0 -20 -15 0 -11 14 -14 15 -15 4 0 -13 -1 -13 -10 0 -6
10 -10 11 -10 3 0 -7 -7 -13 -15 -13 -8 0 -15 5 -15 10 0 6 -70 10 -191 10
-131 0 -188 -3 -184 -11 5 -7 -34 -9 -124 -7 -109 2 -131 1 -131 -11 0 -12 -3
-12 -12 -3 -21 21 -32 13 -13 -8 10 -12 25 -18 32 -15 8 2 12 1 9 -3 -3 -4 5
-14 16 -21 18 -11 20 -11 15 3 -4 11 -2 13 10 9 10 -4 14 -2 9 5 -4 7 1 10 13
9 11 0 18 -4 15 -8 -2 -4 3 -12 12 -17 14 -8 14 -10 -4 -14 -15 -4 -19 -2 -15
8 3 8 1 14 -5 14 -13 0 -24 -29 -16 -42 3 -5 12 -7 20 -4 9 3 11 0 7 -11 -4
-11 -3 -14 6 -9 7 4 10 3 9 -5 -2 -6 3 -14 11 -17 10 -3 12 0 8 12 -4 9 -2 16
3 16 6 0 10 -2 10 -4 0 -2 3 -12 7 -22 4 -12 3 -15 -5 -10 -7 4 -12 3 -12 -3
0 -5 4 -12 9 -15 5 -3 11 -15 14 -26 3 -11 1 -18 -4 -14 -5 3 -9 10 -9 15 0
21 -87 103 -155 147 -38 25 -97 53 -130 63 l-60 17 91 1 c50 1 105 6 123 12
34 12 61 53 61 91 0 66 -69 128 -141 128 -75 0 -216 -55 -347 -136 l-57 -35
57 54 c78 76 182 136 408 237 261 117 339 154 340 162 0 14 -118 40 -205 45
-161 10 -300 -29 -448 -126 -73 -49 -177 -151 -224 -222 -14 -22 -28 -38 -30
-36 -6 7 52 129 95 200 23 37 65 95 94 128 50 58 180 172 223 197 14 8 91 11
248 10 l229 -2 47 -61z m-2985 -591 c-84 -51 -124 -81 -165 -127 -23 -26 -40
-38 -48 -33 -7 5 -10 15 -7 23 3 8 1 11 -4 8 -5 -3 -8 -20 -6 -38 4 -30 -40
-144 -51 -133 -4 4 14 50 34 89 2 4 0 7 -6 7 -5 0 -13 -9 -16 -21 -6 -19 -7
-20 -20 -2 -7 10 -11 20 -9 23 3 2 9 -2 14 -9 6 -10 13 1 24 39 20 68 21 65
-14 66 -16 1 -28 -2 -25 -5 6 -11 -31 -30 -44 -22 -9 6 -5 12 11 23 51 34 152
79 235 107 156 51 176 52 97 5z m3199 -91 c-7 -2 -19 -2 -25 0 -7 3 -2 5 12 5
14 0 19 -2 13 -5z m-2905 -14 c-11 -6 -18 -21 -17 -37 1 -27 1 -27 8 -3 4 14
12 26 19 27 7 1 8 0 3 -2 -5 -3 -8 -31 -6 -62 3 -42 2 -48 -3 -22 -7 32 -8 33
-14 12 -4 -13 -4 -38 -2 -55 3 -18 0 -45 -5 -62 -7 -23 -10 -1 -9 90 0 116 1
121 22 122 19 2 19 1 4 -8z m895 -6 c-13 -2 -33 -2 -45 0 -13 2 -3 4 22 4 25
0 35 -2 23 -4z m1680 0 c-13 -2 -33 -2 -45 0 -13 2 -3 4 22 4 25 0 35 -2 23
-4z m-3479 -50 c-8 -31 -21 -20 -22 18 -1 28 1 30 13 18 9 -8 12 -23 9 -36z
m1288 33 c11 6 11 5 0 -8 -8 -10 -9 -19 -3 -22 5 -3 11 -3 14 1 2 5 3 3 1 -4
-4 -18 8 -24 25 -10 14 10 14 10 4 -4 -10 -12 -9 -20 4 -38 12 -18 17 -20 25
-10 8 11 9 10 5 -2 -7 -20 17 -92 26 -82 7 7 8 2 11 -49 3 -45 -24 -108 -46
-108 -10 0 -18 5 -18 10 0 6 5 10 10 10 6 0 19 14 29 31 17 29 18 33 2 82 -18
58 -67 141 -106 177 -26 25 -36 51 -10 30 8 -6 20 -8 27 -4z m-2859 -9 c-4 -6
0 -8 10 -4 9 3 19 1 23 -4 3 -6 18 -8 33 -5 14 3 20 3 13 0 -10 -5 -9 -9 5
-19 14 -11 9 -11 -24 0 -23 8 -48 12 -56 9 -7 -2 -24 0 -38 5 -13 5 -17 10 -9
11 12 0 12 2 2 8 -8 6 -2 9 17 9 18 0 28 -5 24 -10z m123 0 c4 -3 -4 -4 -16
-2 -30 6 -40 16 -12 12 12 -2 24 -6 28 -10z m1384 -7 c0 -11 -7 -20 -15 -20
-18 0 -19 12 -3 28 16 16 18 15 18 -8z m3580 -1 c0 -5 -4 -9 -10 -9 -5 0 -10
-4 -10 -10 0 -5 7 -7 14 -4 13 5 13 2 3 -20 -12 -26 -31 -37 -21 -13 3 8 0 25
-5 39 -5 14 -7 28 -4 31 7 8 33 -3 33 -14z m108 14 c-10 -2 -28 -2 -40 0 -13
2 -5 4 17 4 22 1 32 -1 23 -4z m-3368 -18 c11 -13 10 -14 -4 -9 -11 4 -22 0
-30 -11 -11 -15 -14 -16 -21 -4 -5 8 -5 11 0 7 5 -5 14 1 22 12 17 24 17 24
33 5z m855 -136 c66 -67 112 -119 103 -116 -10 3 -20 2 -23 -3 -3 -4 0 -10 6
-12 7 -2 6 -8 -4 -16 -12 -10 -14 -7 -12 21 3 38 -17 73 -37 61 -7 -4 -10 -4
-6 1 9 10 -11 37 -22 30 -5 -3 -11 3 -15 14 -3 10 -15 21 -26 24 -12 3 -18 10
-15 16 6 10 -11 26 -29 26 -5 0 -10 7 -10 15 0 21 -12 28 -48 24 -18 -1 -26 0
-19 3 10 4 10 8 0 21 -11 14 -9 14 8 0 32 -27 41 -21 13 8 -20 22 -21 25 -4
16 11 -6 74 -66 140 -133z m2310 121 c3 -6 -1 -7 -9 -4 -18 7 -21 14 -7 14 6
0 13 -4 16 -10z m-5041 -17 c25 33 25 17 1 -19 -14 -20 -25 -41 -25 -47 0 -6
-3 -8 -6 -5 -3 4 -1 17 6 30 l11 23 -19 -22 -19 -21 3 36 c3 50 3 50 20 27 14
-19 16 -19 28 -2z m1449 -3 c-13 -15 -63 -17 -63 -3 0 3 11 3 25 1 25 -5 35 7
13 15 -7 2 -1 4 13 4 24 0 25 -1 12 -17z m572 10 c3 -5 1 -10 -4 -10 -6 0 -11
5 -11 10 0 6 2 10 4 10 3 0 8 -4 11 -10z m275 6 c0 -2 -8 -10 -17 -17 -16 -13
-17 -12 -4 4 13 16 21 21 21 13z m-496 -20 c-6 -15 -36 -31 -74 -41 -18 -4 37
34 77 54 1 1 0 -5 -3 -13z m1795 -26 c10 -22 16 -42 12 -44 -4 -3 -15 15 -24
40 -20 55 -14 57 12 4z m-1249 -217 c-6 -131 -12 -265 -13 -298 l-2 -60 -134
-3 c-75 -1 -139 2 -144 7 -9 9 -37 153 -32 159 9 11 27 -48 28 -89 1 -28 5
-45 10 -42 6 4 7 1 2 -7 -6 -9 -4 -11 4 -5 9 5 11 19 7 44 -4 20 -7 50 -7 66
0 24 -2 27 -10 15 -9 -12 -10 -12 -5 3 3 10 6 24 6 30 0 7 5 4 11 -6 6 -10 8
-29 5 -42 -4 -16 -1 -27 9 -33 9 -4 17 -22 18 -40 2 -31 27 -47 27 -17 0 8 7
15 15 15 8 0 15 -7 15 -15 0 -8 8 -15 18 -15 9 0 27 -3 40 -6 18 -5 22 -2 22
17 1 22 2 23 14 7 7 -10 16 -18 18 -18 18 0 28 75 32 220 3 171 14 233 28 175
5 -19 6 -9 3 30 -3 40 -1 53 5 40 6 -14 9 0 9 49 1 38 4 67 7 64 3 -4 0 -113
-6 -245z m-2130 210 c0 10 4 17 8 17 4 0 8 -9 8 -19 0 -11 -4 -17 -8 -15 -4 3
-8 -4 -8 -16 0 -12 4 -19 8 -16 4 2 9 -5 9 -17 2 -21 1 -22 -13 -3 -8 11 -14
28 -14 39 0 12 -4 16 -12 11 -7 -4 -10 -4 -6 1 4 4 2 15 -4 24 -8 10 -4 9 10
-3 19 -17 22 -17 22 -3z m2031 -16 c-12 -13 -24 -34 -26 -47 -5 -26 -15 -40
-15 -20 0 7 -9 1 -21 -14 -11 -14 -17 -31 -13 -37 4 -8 3 -9 -4 -5 -7 4 -12 3
-12 -3 0 -5 -7 -17 -16 -25 -12 -12 -12 -16 -2 -16 7 -1 0 -8 -15 -16 -15 -8
-25 -20 -21 -25 10 -17 -25 -47 -49 -42 -20 4 -20 3 3 -10 24 -15 22 -15 -27
-11 l-52 5 10 -30 c6 -16 17 -32 25 -35 17 -6 19 -32 2 -42 -7 -5 -8 -3 -4 5
5 7 2 20 -6 29 -31 36 -69 112 -53 106 8 -3 12 -10 9 -15 -8 -13 67 0 93 17
22 14 37 33 153 192 29 40 55 70 58 67 3 -3 -4 -16 -17 -28z m761 -3 c-9 -16
-10 -14 -9 8 1 15 6 23 11 18 4 -4 4 -16 -2 -26z m-1325 4 c-3 -8 -6 -5 -6 6
-1 11 2 17 5 13 3 -3 4 -12 1 -19z m-1107 2 c0 -5 -4 -10 -10 -10 -5 0 -10 5
-10 10 0 6 5 10 10 10 6 0 10 -4 10 -10z m1354 -16 c3 -8 2 -12 -4 -9 -6 3
-10 10 -10 16 0 14 7 11 14 -7z m2591 -2 c-3 -3 -11 0 -18 7 -9 10 -8 11 6 5
10 -3 15 -9 12 -12z m-1858 -19 c0 -7 -4 -13 -8 -13 -4 0 -9 6 -12 13 -3 8 0
14 7 14 7 0 13 -6 13 -14z m360 2 c-4 -8 -2 -17 3 -20 6 -4 10 -11 10 -18 0
-6 -6 -2 -14 8 -12 17 -12 45 1 45 3 0 3 -7 0 -15z m-2437 -37 c0 -38 -5 -34
-13 10 -4 21 -3 31 3 27 6 -3 10 -20 10 -37z m1170 38 c0 -2 -7 -7 -16 -10 -8
-3 -12 -2 -9 4 6 10 25 14 25 6z m1868 -18 c1 -13 3 -61 6 -108 l5 -85 -9 80
c-5 43 -12 85 -14 92 -5 12 2 43 9 43 2 0 3 -10 3 -22z m942 1 c0 7 5 9 11 5
8 -5 8 -8 0 -13 -8 -5 -6 -13 5 -27 14 -17 15 -17 10 -1 -4 12 -2 16 6 11 8
-5 9 -2 5 9 -3 9 -1 19 6 23 7 4 9 4 5 -1 -13 -14 13 -37 27 -25 10 8 17 5 29
-12 9 -13 22 -23 28 -23 6 0 13 -6 16 -13 2 -8 -2 -12 -13 -10 -26 4 -30 -19
-6 -32 20 -10 20 -12 3 -37 -9 -15 -11 -24 -4 -20 7 5 12 3 12 -7 0 -8 3 -23
7 -33 4 -10 -6 -4 -25 15 -29 29 -32 31 -32 12 0 -12 5 -18 10 -15 6 3 10 -3
10 -15 0 -13 -4 -19 -11 -14 -8 4 -9 -1 -3 -17 22 -63 -10 -178 -55 -197 -21
-9 -21 -10 -3 -6 12 3 22 1 22 -4 0 -14 -27 -23 -47 -15 -10 4 -14 2 -9 -5 7
-11 -24 -9 -44 3 -5 3 -20 1 -32 -6 l-23 -11 22 22 c14 15 37 24 65 27 49 5
63 14 85 57 12 23 14 48 10 106 -9 108 -20 135 -114 270 l-17 25 22 -19 c13
-12 22 -14 22 -7z m-233 -21 c-3 -7 -5 -2 -5 12 0 14 2 19 5 13 2 -7 2 -19 0
-25z m-4030 -10 c-3 -7 -5 -2 -5 12 0 14 2 19 5 13 2 -7 2 -19 0 -25z m3002
-10 c-7 -18 -13 -42 -11 -53 l2 -20 -9 20 c-4 11 -4 29 1 40 4 11 11 28 14 38
4 10 9 16 12 13 2 -3 -1 -20 -9 -38z m-4100 -4 c-6 -16 -12 -38 -14 -49 -1
-11 -10 -47 -20 -80 -9 -33 -21 -79 -26 -103 -5 -24 -16 -64 -24 -90 -13 -37
-14 -47 -3 -51 7 -2 26 -17 41 -33 24 -23 37 -28 77 -28 41 0 53 5 79 31 26
26 37 30 73 27 38 -3 44 -6 50 -33 6 -23 6 -19 4 15 l-4 45 14 -32 c16 -38 28
-45 14 -9 -11 30 -30 202 -29 258 2 37 17 -66 23 -149 0 -12 3 -19 5 -17 3 2
19 -33 36 -78 l32 -83 -225 -3 c-124 -1 -227 0 -230 2 -4 5 27 148 48 221 5
17 21 75 36 130 31 116 43 150 50 143 2 -3 0 -18 -7 -34z m311 15 c0 -13 -39
-31 -52 -23 -7 4 -8 3 -4 -4 4 -7 2 -12 -4 -12 -6 0 -8 -5 -5 -11 4 -6 13 -8
21 -5 11 4 11 0 -2 -19 -9 -14 -21 -22 -27 -18 -8 5 -7 8 1 11 7 2 12 8 12 13
0 6 -4 8 -8 5 -4 -2 -9 9 -10 25 -1 16 3 29 9 29 6 0 17 7 25 15 15 14 44 11
44 -6z m5517 -11 c2 -17 0 -19 -7 -8 -5 8 -6 18 -4 22 8 12 10 10 11 -14z
m-5437 -2 c0 -8 -6 -17 -12 -19 -7 -3 2 -10 20 -17 17 -7 32 -16 32 -21 0 -4
8 -6 18 -3 13 5 14 4 3 -4 -10 -7 -21 -6 -36 4 -13 8 -45 17 -73 21 -48 5 -64
23 -23 23 10 0 24 7 31 15 16 19 40 19 40 1z m669 -26 c0 -10 -3 -8 -9 5 -12
27 -12 43 0 25 5 -8 9 -22 9 -30z m3408 18 c-3 -8 -6 -5 -6 6 -1 11 2 17 5 13
3 -3 4 -12 1 -19z m693 0 c0 -5 -6 -8 -14 -5 -15 6 -15 -30 0 -115 3 -20 1
-60 -5 -88 -8 -39 -8 -56 0 -66 8 -9 8 -14 1 -14 -6 0 -13 8 -17 19 -9 30 -3
265 7 278 11 14 28 8 28 -9z m-4429 -54 c-5 -35 -9 -46 -10 -28 -1 34 9 97 15
91 2 -2 0 -30 -5 -63z m2007 -14 l0 -45 -12 35 c-7 24 -17 35 -29 34 -12 -1
-13 -1 -2 3 8 2 18 16 22 31 6 24 7 25 14 7 4 -11 7 -40 7 -65z m1384 53 c-3
-16 -7 -22 -10 -15 -4 13 4 42 11 42 2 0 2 -12 -1 -27z m-4092 7 c0 -5 -4 -10
-10 -10 -5 0 -10 5 -10 10 0 6 5 10 10 10 6 0 10 -4 10 -10z m5905 -10 c3 -6
-1 -7 -9 -4 -18 7 -21 14 -7 14 6 0 13 -4 16 -10z m-963 -31 c-2 -13 -8 -28
-13 -33 -5 -6 -5 3 0 22 6 19 6 33 0 36 -5 2 -4 3 3 2 8 -2 12 -13 10 -27z
m-4942 5 c0 -8 -4 -12 -10 -9 -5 3 -10 10 -10 16 0 5 5 9 10 9 6 0 10 -7 10
-16z m1926 -389 c261 0 283 1 303 19 21 19 51 16 51 -6 0 -9 13 -12 43 -10
l44 4 -4 83 c-3 79 -2 85 19 96 32 18 58 17 94 -3 17 -10 34 -16 37 -13 4 3 5
2 2 -2 -3 -4 7 -20 22 -37 22 -23 16 -21 -26 12 -52 41 -87 51 -125 36 -26
-10 -20 -75 14 -139 17 -31 30 -59 30 -61 0 -2 -179 -3 -397 -1 l-398 2 0 215
-1 215 6 -205 5 -205 281 0z m-1426 385 c0 -5 -2 -10 -4 -10 -3 0 -8 5 -11 10
-3 6 -1 10 4 10 6 0 11 -4 11 -10z m2128 1 c18 -11 -11 -34 -35 -28 -15 4 -15
6 5 12 18 6 20 10 10 16 -7 5 -8 9 -3 9 6 0 16 -4 23 -9z m1852 -38 c0 -30 3
-35 19 -30 10 2 25 1 32 -4 10 -6 2 -9 -21 -9 -46 0 -57 12 -52 55 5 44 22 35
22 -12z m1051 20 c10 -11 9 -17 -3 -30 -18 -17 -42 -8 -34 13 3 7 1 16 -4 19
-6 4 -10 10 -10 15 0 12 37 0 51 -17z m-2966 7 c-3 -5 -10 -10 -16 -10 -5 0
-9 5 -9 10 0 6 7 10 16 10 8 0 12 -4 9 -10z m1506 -26 c-5 -16 -10 -21 -10
-12 -1 18 10 51 15 45 2 -1 -1 -16 -5 -33z m1796 14 c-3 -8 -6 -5 -6 6 -1 11
2 17 5 13 3 -3 4 -12 1 -19z m-3197 2 c-8 -5 -19 -10 -25 -10 -5 0 -3 5 5 10
8 5 20 10 25 10 6 0 3 -5 -5 -10z m3164 -6 c3 -8 2 -12 -4 -9 -6 3 -10 10 -10
16 0 14 7 11 14 -7z m-5383 -12 c-7 -2 -18 1 -23 6 -8 8 -4 9 13 5 13 -4 18
-8 10 -11z m606 -4 c-3 -8 -6 -5 -6 6 -1 11 2 17 5 13 3 -3 4 -12 1 -19z
m2740 2 c-1 -11 -5 -20 -9 -20 -10 0 -10 4 -2 24 8 22 13 20 11 -4z m2099 -7
c-2 -16 -5 -32 -5 -36 -1 -5 -5 -5 -11 -2 -5 3 -10 1 -10 -4 0 -6 5 -11 12
-11 6 0 8 -3 5 -7 -4 -3 -2 -12 5 -20 8 -11 7 -12 -6 -7 -9 3 -16 14 -17 23 0
10 -2 12 -6 3 -3 -7 0 -18 5 -25 12 -15 13 -165 1 -173 -5 -3 -6 14 -3 39 4
24 1 67 -5 96 -9 43 -8 61 5 102 17 52 38 67 30 22z m-2282 5 c-5 -8 -2 -9 10
-5 9 4 15 3 11 -2 -3 -6 -14 -9 -25 -8 -14 1 -16 4 -8 14 13 16 22 17 12 1z
m-2267 -35 c-3 -10 -5 -4 -5 12 0 17 2 24 5 18 2 -7 2 -21 0 -30z m1233 23 c0
-8 -4 -18 -10 -21 -5 -3 -10 3 -10 14 0 12 5 21 10 21 6 0 10 -6 10 -14z
m3035 -64 c-3 -9 0 -12 9 -9 8 3 31 -15 58 -46 57 -68 83 -108 66 -105 -7 2
-12 -4 -10 -12 3 -13 1 -13 -10 -1 -9 10 -10 15 -2 18 9 3 8 12 -3 34 -9 17
-19 26 -26 23 -7 -4 -9 -3 -4 1 8 10 -22 47 -33 40 -4 -3 -11 6 -14 19 -4 15
-13 23 -23 22 -11 0 -17 5 -17 17 1 9 -2 17 -7 17 -5 0 -9 -6 -9 -12 0 -9 -3
-8 -9 2 -6 8 -7 18 -5 22 3 4 0 8 -5 8 -6 0 -11 7 -11 16 0 9 -5 12 -12 8 -7
-5 -8 -3 -3 5 10 17 78 -48 70 -67z m-5126 54 c7 -8 20 -12 30 -9 9 2 24 -4
32 -14 13 -16 12 -17 -3 -4 -10 7 -24 11 -31 8 -7 -3 -24 4 -38 14 -13 10 -19
19 -13 19 6 0 17 -6 23 -14z m5358 -18 c-3 -7 -5 -2 -5 12 0 14 2 19 5 13 2
-7 2 -19 0 -25z m-5267 12 c8 -5 11 -10 5 -10 -5 0 -17 5 -25 10 -8 5 -10 10
-5 10 6 0 17 -5 25 -10z m501 -127 c1 -31 5 -49 10 -41 4 7 11 9 15 5 4 -4 0
-13 -9 -20 -8 -6 -17 -23 -20 -37 -2 -14 -4 2 -5 35 -1 33 -6 87 -12 120 -13
79 -11 90 6 36 7 -24 14 -68 15 -98z m2196 75 c-2 -13 -4 -3 -4 22 0 25 2 35
4 23 2 -13 2 -33 0 -45z m1153 58 c0 -3 -4 -8 -10 -11 -5 -3 -10 -1 -10 4 0 6
5 11 10 11 6 0 10 -2 10 -4z m492 -15 c-16 -41 -53 -110 -62 -116 -16 -10 -12
3 11 34 15 20 20 40 17 63 -3 29 -1 34 18 34 15 0 20 -5 16 -15z m267 -28 c1
-7 -3 -13 -7 -13 -5 0 -9 15 -9 33 -1 26 1 28 7 12 5 -11 9 -26 9 -32z m-1135
-75 c-4 -62 -11 -118 -16 -125 -5 -6 -5 -12 0 -15 5 -1 13 -19 17 -38 l7 -35
-24 25 c-13 14 -23 27 -21 29 1 2 -3 11 -9 20 -7 9 -8 13 -4 9 5 -4 15 -3 23
3 15 13 18 89 3 89 -7 0 -7 6 0 19 5 11 10 38 10 60 0 38 8 71 17 71 2 0 1
-51 -3 -112z m531 102 c3 -5 1 -10 -4 -10 -6 0 -11 5 -11 10 0 6 2 10 4 10 3
0 8 -4 11 -10z m-785 -10 c0 -5 -2 -10 -4 -10 -3 0 -8 5 -11 10 -3 6 -1 10 4
10 6 0 11 -4 11 -10z m-1240 -10 c0 -5 -4 -10 -10 -10 -5 0 -10 5 -10 10 0 6
5 10 10 10 6 0 10 -4 10 -10z m29 -17 c0 -25 -1 -26 -9 -8 -12 27 -12 35 0 35
6 0 10 -12 9 -27z m-1900 -25 c0 -24 -3 -37 -6 -30 -2 6 -10 9 -16 6 -8 -5 -8
-2 1 7 6 7 12 23 12 36 0 13 2 23 5 23 3 0 5 -19 4 -42z m4169 -5 c-16 -25
-23 -45 -18 -57 5 -14 -1 -28 -22 -48 -32 -31 -51 -39 -25 -10 27 30 19 38
-10 11 -15 -13 -22 -16 -14 -7 7 9 10 22 6 28 -4 6 -1 9 6 8 7 -2 19 9 26 25
8 15 18 27 23 27 5 0 10 12 12 28 2 15 8 26 16 25 6 -2 12 2 12 9 0 6 3 8 6 5
4 -4 -4 -24 -18 -44z m-4253 -6 c4 5 5 2 1 -5 -6 -11 -15 -7 -37 14 -16 15
-29 30 -29 33 0 2 13 -7 28 -22 16 -15 32 -24 37 -20z m-663 15 c-7 -2 -12
-11 -12 -19 0 -9 -3 -14 -6 -10 -10 10 7 48 19 40 8 -5 8 -8 -1 -11z m695 3
c0 -10 -6 -14 -14 -10 -8 3 -19 5 -24 5 -6 0 -7 5 -4 10 10 16 42 12 42 -5z
m4833 -20 c0 -5 -5 -3 -10 5 -8 12 -10 12 -10 1 0 -8 -2 -12 -5 -9 -3 3 -2 13
1 22 5 14 9 15 15 4 5 -7 9 -17 9 -23z m585 23 c4 4 3 -2 -3 -13 -7 -15 -6
-29 4 -54 9 -22 11 -38 4 -49 -9 -16 -9 -16 -10 -1 0 9 -7 22 -15 29 -9 8 -15
30 -15 57 0 37 3 43 13 34 8 -6 17 -7 22 -3z m-3277 -29 c-3 -8 -7 -3 -11 10
-4 17 -3 21 5 13 5 -5 8 -16 6 -23z m1808 22 c-3 -5 -7 -60 -8 -122 -1 -63 -4
-103 -8 -89 l-6 25 -6 -27 c-4 -20 -1 -28 11 -30 12 -3 10 -5 -6 -10 -23 -6
-24 5 -3 82 6 19 10 65 10 101 0 58 5 79 17 79 2 0 2 -4 -1 -9z m633 -78 c1
-13 5 -23 10 -23 5 0 11 -10 14 -22 6 -23 6 -22 -12 1 -11 14 -22 39 -25 55
-3 17 -8 42 -11 56 -3 14 1 10 9 -10 8 -19 15 -45 15 -57z m-2721 57 c8 -4 -3
-6 -25 -4 -47 2 -46 2 -38 14 6 10 35 6 63 -10z m1352 5 c-30 -17 -40 -18 -40
-6 0 8 22 16 55 19 6 1 -1 -5 -15 -13z m1327 -7 c-3 -8 -6 -5 -6 6 -1 11 2 17
5 13 3 -3 4 -12 1 -19z m-2570 -54 c-1 -2 -9 1 -16 5 -9 6 -11 16 -5 32 7 24
7 24 15 -5 5 -17 7 -31 6 -32z m200 24 c-3 -7 -5 -2 -5 12 0 14 2 19 5 13 2
-7 2 -19 0 -25z m30 10 c-3 -8 -6 -5 -6 6 -1 11 2 17 5 13 3 -3 4 -12 1 -19z
m1008 12 c15 6 30 8 33 5 3 -3 0 -5 -7 -5 -7 0 5 -16 26 -35 37 -34 61 -46 47
-23 -4 7 -3 8 4 4 6 -4 9 -13 5 -21 -6 -17 22 -21 32 -5 3 6 13 10 22 10 9 0
14 -3 11 -6 -4 -3 -8 -4 -11 -2 -3 2 -15 -6 -26 -16 -21 -19 -22 -19 -37 2
-18 27 -75 52 -115 52 -29 0 -69 -30 -69 -51 0 -5 -4 -8 -8 -5 -5 3 -10 -14
-10 -37 -1 -23 -6 -55 -10 -72 l-8 -30 -205 -3 c-112 -1 -214 0 -226 3 -22 5
-23 10 -22 98 0 72 2 87 10 67 6 -14 8 -38 5 -54 -7 -31 10 -106 23 -106 5 0
7 12 5 28 -2 15 -1 19 2 10 5 -15 18 -18 85 -18 46 0 79 4 79 10 0 14 67 13
72 -1 2 -6 41 -13 87 -16 63 -5 82 -3 77 6 -4 6 -12 9 -17 6 -5 -4 -9 -1 -9 5
0 6 6 13 14 16 14 6 32 57 28 81 -2 6 2 14 8 18 5 3 10 11 10 16 0 6 -4 8 -9
4 -5 -3 -12 -1 -16 4 -3 6 4 8 15 6 17 -3 20 0 15 15 -7 23 32 55 51 40 8 -7
21 -7 39 0z m-2524 -137 c-9 -17 -9 -6 0 107 2 21 4 9 6 -28 2 -34 0 -70 -6
-79z m48 -8 l1 -91 -36 -2 c-21 -2 -33 1 -30 7 4 5 2 12 -4 16 -5 3 -10 -1
-10 -10 0 -9 -4 -13 -10 -10 -5 3 -9 23 -9 43 l1 37 8 -30 c4 -16 8 -26 9 -21
0 5 8 3 16 -4 18 -15 21 -8 29 70 4 30 9 75 13 100 7 43 7 44 14 15 4 -16 7
-71 8 -120z m1136 117 c-3 -3 -11 0 -18 7 -9 10 -8 11 6 5 10 -3 15 -9 12 -12z
m-1824 -1 c7 11 9 10 9 -3 0 -10 -4 -18 -9 -18 -5 0 -3 -14 6 -31 8 -16 13
-33 10 -35 -3 -3 -8 4 -12 15 -3 12 -11 19 -16 16 -5 -3 -6 2 -2 11 5 13 3 15
-8 9 -11 -6 -11 -5 -2 5 6 7 10 18 9 24 -2 6 -1 7 2 2 2 -4 8 -2 13 5z m4466
-13 c-3 -8 -6 -5 -6 6 -1 11 2 17 5 13 3 -3 4 -12 1 -19z m528 13 c3 -5 2 -12
-3 -15 -5 -3 -9 1 -9 9 0 17 3 19 12 6z m292 -13 c-3 -8 -6 -5 -6 6 -1 11 2
17 5 13 3 -3 4 -12 1 -19z m-785 -20 c-6 -6 -12 -4 -16 7 -3 9 -2 13 4 10 6
-3 10 0 11 7 0 10 2 10 6 0 3 -8 1 -18 -5 -24z m-4019 0 c-2 -5 2 -9 9 -9 7
-1 20 -3 28 -4 8 -1 21 -3 28 -4 6 0 12 -5 12 -10 0 -4 -18 -5 -40 -1 -21 4
-41 4 -43 1 -2 -3 -2 0 0 8 2 8 -2 11 -12 7 -9 -3 -14 -2 -10 3 3 5 -1 11 -7
14 -7 2 -1 4 14 3 14 0 24 -4 21 -8z m42 2 c-3 -5 -11 -10 -16 -10 -6 0 -7 5
-4 10 3 6 11 10 16 10 6 0 7 -4 4 -10z m75 -1 c0 6 4 11 9 11 5 0 7 -9 4 -21
-4 -12 -11 -18 -20 -15 -8 3 -17 6 -19 6 -2 0 -4 7 -4 16 0 14 3 14 15 4 10
-9 15 -9 15 -1z m1600 -23 c0 -19 -6 -36 -13 -39 -10 -4 -13 2 -10 21 10 61
23 71 23 18z m-261 -19 c-1 -22 -3 -25 -6 -12 -3 11 -10 23 -15 26 -6 4 -7 12
-4 18 12 19 26 1 25 -32z m2113 1 c-7 -7 -12 -8 -12 -2 0 14 12 26 19 19 2 -3
-1 -11 -7 -17z m735 0 c-3 -8 -6 -5 -6 6 -1 11 2 17 5 13 3 -3 4 -12 1 -19z
m-253 -4 c5 -14 4 -15 -9 -4 -17 14 -19 20 -6 20 5 0 12 -7 15 -16z m-3946
-30 c-3 -14 -5 -12 -10 9 -3 19 -2 25 4 19 6 -6 8 -18 6 -28z m3496 5 c-3 -5
-10 -7 -15 -3 -5 3 -7 10 -3 15 3 5 10 7 15 3 5 -3 7 -10 3 -15z m-1457 -21
c-3 -7 -5 -2 -5 12 0 14 2 19 5 13 2 -7 2 -19 0 -25z m1364 14 c-8 -3 -7 -8 5
-17 16 -11 15 -14 -15 -29 -18 -10 -35 -15 -38 -12 -4 3 9 12 28 20 19 9 27
15 18 16 -8 0 -24 7 -35 15 -18 14 -18 14 4 8 13 -3 22 -1 22 6 0 7 5 9 12 5
9 -6 9 -9 -1 -12z m599 3 c0 -2 -6 -5 -13 -8 -8 -3 -14 1 -14 8 0 7 6 11 14 8
7 -3 13 -6 13 -8z m558 -7 c19 -5 31 -12 28 -15 -10 -10 -74 7 -87 24 -12 15
-12 16 6 9 11 -5 35 -13 53 -18z m-4735 -12 c-10 -13 -20 -22 -22 -20 -4 4 29
44 36 44 2 0 -4 -11 -14 -24z m1498 7 c13 -16 12 -17 -3 -4 -10 7 -18 15 -18
17 0 8 8 3 21 -13z m2014 7 c3 -5 1 -10 -4 -10 -6 0 -11 5 -11 10 0 6 2 10 4
10 3 0 8 -4 11 -10z m130 1 c3 -5 1 -13 -5 -16 -15 -9 -43 3 -35 15 8 13 32
13 40 1z m-2118 -33 c-3 -8 -6 -5 -6 6 -1 11 2 17 5 13 3 -3 4 -12 1 -19z
m-1088 -327 c188 -58 340 -210 403 -401 25 -79 36 -261 19 -341 -30 -141 -103
-261 -196 -321 -33 -22 -68 -37 -77 -34 -10 2 -16 0 -13 -4 6 -10 -46 -23
-105 -25 -89 -4 -90 -4 -84 -22 5 -16 4 -16 -10 1 -8 10 -20 15 -26 11 -7 -4
-17 -1 -22 6 -7 10 -11 11 -14 2 -3 -7 -11 -10 -19 -7 -7 3 -16 1 -20 -5 -3
-6 -12 -11 -18 -11 -8 0 -8 3 2 9 11 7 11 10 0 17 -7 4 -14 3 -17 -4 -2 -7 -8
-10 -13 -6 -5 3 -9 0 -9 -6 0 -6 -8 -9 -17 -6 -10 3 -25 1 -33 -4 -10 -6 -20
-4 -32 7 -10 9 -21 13 -25 9 -4 -4 -1 -11 7 -16 17 -11 9 -13 -14 -4 -9 3 -13
10 -10 15 3 5 1 9 -5 9 -5 0 -11 -5 -13 -12 -3 -7 -21 -12 -41 -12 -22 0 -39
-6 -42 -14 -4 -12 -9 -11 -30 2 -14 9 -30 14 -36 11 -13 -9 -61 23 -54 35 3 6
0 7 -8 4 -22 -8 -133 120 -172 200 -50 103 -68 184 -69 306 0 187 56 332 178
455 84 85 202 149 319 171 90 17 235 10 316 -15z m2099 23 c22 -6 22 -9 22
-160 l0 -154 -79 1 c-87 1 -127 -13 -155 -55 -20 -31 -21 -98 -1 -135 14 -28
131 -141 146 -141 18 0 51 -63 51 -96 0 -19 -2 -38 -5 -41 -3 -3 -34 4 -69 16
-70 22 -147 36 -255 46 l-73 7 -54 59 c-71 77 -99 147 -100 254 -2 203 139
357 362 395 58 10 179 12 210 4z m522 -92 c18 -48 75 -195 126 -327 51 -133
114 -299 139 -370 25 -72 55 -153 66 -181 20 -51 50 -156 46 -160 -1 -2 -101
-4 -221 -5 l-218 -2 -102 100 c-91 90 -227 193 -255 193 -22 0 -28 -19 128
380 44 113 101 259 127 325 25 66 50 125 55 131 4 5 24 8 43 6 33 -4 35 -7 66
-90z m701 80 c12 -14 186 -469 265 -694 27 -76 51 -138 54 -138 3 0 19 42 37
93 17 52 87 241 154 420 l122 327 163 0 c90 0 164 -2 164 -5 0 -3 -45 -116
-101 -253 -56 -136 -131 -321 -168 -412 -37 -91 -85 -206 -107 -257 l-39 -92
-50 -6 c-76 -10 -188 -42 -283 -81 -46 -19 -85 -34 -86 -32 -12 19 -167 401
-256 633 -32 83 -87 227 -124 321 -36 94 -66 176 -66 181 0 11 311 7 321 -5z
m-4194 -89 c-4 -54 -7 -126 -7 -160 l0 -63 -129 0 -128 0 -5 -415 c-2 -228 -7
-417 -10 -420 -3 -4 -32 -1 -65 6 -32 6 -98 14 -148 18 l-90 6 -3 403 -2 402
-125 0 -125 0 0 144 c0 79 -3 151 -6 160 -6 14 36 16 421 16 l428 0 -6 -97z
m1723 -145 c0 -203 2 -240 13 -228 8 8 42 62 77 120 35 58 99 160 143 228 l79
122 139 0 140 0 -38 -57 c-82 -128 -273 -448 -273 -460 0 -7 43 -69 95 -139
52 -70 95 -130 95 -134 0 -4 -30 -20 -66 -35 -37 -16 -100 -50 -141 -77 -40
-26 -75 -48 -77 -48 -2 0 -41 45 -86 100 -46 55 -87 100 -92 100 -4 0 -8 -80
-8 -177 0 -98 -4 -183 -8 -189 -4 -7 -61 -13 -144 -17 l-138 -5 -1 161 c-1 89
-3 345 -5 570 l-4 407 150 0 150 0 0 -242z m4228 85 l-3 -158 -147 -3 -148 -3
0 -73 0 -73 46 -6 c25 -2 83 -2 130 1 l85 5 -8 -44 c-4 -24 -8 -88 -8 -142 l0
-97 -122 0 -123 0 -2 -32 c-1 -18 -2 -50 -2 -70 l-1 -38 106 0 c58 0 127 -3
153 -6 l46 -7 0 -109 c0 -86 -3 -110 -14 -114 -8 -3 -115 -2 -238 3 l-223 8
-60 31 -60 32 -6 58 c-4 33 -7 269 -8 527 l-1 467 305 0 306 0 -3 -157z
m-3143 -773 c101 -27 243 -96 317 -155 154 -121 257 -331 258 -521 0 -70 -29
-194 -63 -268 -13 -28 -52 -88 -86 -133 l-62 -83 -37 27 c-49 35 -121 104
-133 125 -7 13 -1 29 27 65 21 26 49 73 63 103 23 48 26 68 26 160 0 99 -2
110 -32 171 -76 154 -235 239 -448 239 -76 0 -157 -21 -260 -67 -108 -48 -114
-57 -19 -27 118 38 233 36 322 -6 112 -52 181 -152 190 -272 2 -36 2 -82 -2
-101 l-7 -35 -61 30 c-155 75 -331 72 -503 -7 -70 -32 -192 -122 -252 -186
-60 -66 -146 -195 -189 -286 -48 -100 -96 -180 -156 -258 -63 -80 -227 -243
-295 -291 -115 -82 -260 -145 -408 -175 -76 -16 -312 -16 -385 0 -51 11 -63
19 -145 103 -154 156 -333 253 -550 299 -67 15 -283 18 -361 6 l-51 -7 -58
115 c-32 63 -56 118 -52 121 14 15 245 24 356 14 215 -18 366 -68 570 -189
163 -96 211 -119 288 -137 78 -18 142 -15 196 10 45 22 48 46 10 76 -16 12
-54 46 -86 76 -47 45 -54 55 -40 60 262 85 459 254 728 623 154 212 193 261
298 370 247 255 492 395 762 435 66 10 252 -4 330 -24z m-2425 -260 c0 -5 -2
-10 -4 -10 -3 0 -8 5 -11 10 -3 6 -1 10 4 10 6 0 11 -4 11 -10z m4835 -45
c169 -38 171 -38 448 -43 l277 -4 0 -97 c0 -53 -4 -102 -9 -110 -7 -11 -64
-12 -317 -8 -316 4 -322 5 -564 57 -331 70 -626 -48 -742 -296 -28 -60 -32
-79 -33 -154 0 -47 3 -104 8 -128 5 -27 4 -41 -2 -38 -5 4 -28 -24 -49 -61
-22 -38 -53 -85 -70 -105 -34 -43 -35 -43 -80 47 -50 100 -57 132 -57 255 0
130 18 200 83 325 48 91 191 238 282 288 165 91 281 118 495 113 141 -3 180
-8 330 -41z m-3835 -62 l72 -86 -134 -47 c-161 -56 -257 -104 -408 -205 -203
-135 -317 -178 -507 -191 -209 -14 -355 29 -563 164 -189 123 -304 161 -521
169 l-147 6 -7 94 c-5 67 -4 98 4 106 17 17 320 16 396 -2 97 -22 233 -78 350
-145 186 -105 271 -134 420 -143 154 -9 245 20 450 144 189 114 432 222 501
223 15 0 44 -27 94 -87z m2681 -30 c-75 -92 -76 -93 -100 -88 -19 3 -21 2 -11
-10 7 -8 17 -12 23 -8 6 4 7 1 3 -6 -5 -7 -15 -10 -23 -7 -9 4 -28 -6 -46 -24
-23 -23 -27 -30 -14 -30 9 0 26 9 37 20 11 11 20 16 20 11 0 -29 -34 -35 -183
-32 -152 3 -177 8 -177 40 0 14 2 14 11 1 8 -12 9 -10 7 9 -2 14 -8 26 -15 28
-17 6 -26 -33 -13 -57 6 -12 7 -20 1 -20 -16 0 -21 16 -23 64 -1 25 -5 46 -9
46 -3 0 -11 17 -18 38 -7 20 -15 43 -17 50 -5 9 57 12 286 12 l292 0 -31 -37z
m1189 -343 c41 -5 202 -9 357 -10 l283 0 -7 -32 c-3 -18 -13 -55 -22 -83 l-16
-50 -240 -3 c-323 -4 -484 16 -683 85 -51 18 -52 20 -35 35 16 14 89 54 133
72 16 6 113 1 230 -14z m-5794 -25 c121 -23 198 -64 410 -216 147 -107 280
-155 449 -165 121 -7 209 9 327 60 45 19 86 32 91 29 6 -3 7 -1 4 4 -4 6 16
26 46 44 28 18 86 59 127 90 41 30 81 54 89 51 8 -3 11 0 7 6 -3 6 -2 13 3 16
5 4 8 -2 6 -11 -1 -10 -10 -17 -19 -17 -8 1 -13 -2 -10 -7 6 -10 64 -9 64 1 0
3 -6 12 -12 20 -11 12 -10 12 4 1 24 -18 68 -21 68 -5 0 8 5 14 10 14 7 0 7
-7 0 -21 -7 -12 -18 -18 -26 -15 -11 4 -14 1 -10 -12 14 -42 -198 -220 -350
-295 -127 -63 -198 -82 -309 -82 -96 0 -104 2 -200 43 -310 135 -408 157 -702
157 -189 0 -224 2 -229 15 -8 21 -70 238 -78 278 l-8 32 85 0 c47 0 120 -7
163 -15z m4403 -12 c-6 -16 -16 -55 -23 -88 l-12 -60 -148 -3 -148 -3 6 23 c3
13 11 53 17 91 l12 67 153 0 154 0 -11 -27z m-2801 -68 c-3 -3 -9 2 -12 12 -6
14 -5 15 5 6 7 -7 10 -15 7 -18z m3647 -98 c275 -117 429 -147 766 -147 97 0
210 -3 251 -6 l75 -7 -24 -66 c-13 -36 -31 -71 -39 -78 -12 -8 -119 -11 -402
-9 -342 2 -393 4 -442 20 -156 51 -288 156 -348 276 -18 35 -32 72 -32 82 0
17 3 17 33 5 17 -8 91 -39 162 -70z m-867 -214 c17 -81 52 -161 101 -232 22
-33 41 -62 41 -65 0 -2 -21 0 -47 5 -69 13 -145 51 -212 107 -64 54 -66 55
-152 72 -31 6 -81 27 -113 46 -55 35 -56 37 -41 58 8 11 20 31 27 44 11 22 14
22 198 22 l186 0 12 -57z m562 -143 c0 -5 -5 -10 -11 -10 -5 0 -7 5 -4 10 3 6
8 10 11 10 2 0 4 -4 4 -10z m-25 -30 c-3 -5 -12 -10 -18 -10 -7 0 -6 4 3 10
19 12 23 12 15 0z m-1752 -45 c211 -44 367 -233 370 -445 1 -41 -2 -87 -6
-102 l-7 -28 -96 0 c-65 0 -104 5 -124 15 l-29 15 14 41 c27 74 13 140 -42
200 -59 65 -104 84 -203 84 -76 0 -92 -3 -152 -33 -80 -39 -135 -97 -215 -227
-85 -139 -155 -226 -270 -335 -117 -112 -176 -159 -308 -247 -245 -164 -531
-263 -808 -280 l-98 -6 3 99 3 99 40 7 c285 52 402 86 566 169 308 154 521
350 718 663 161 255 389 365 644 311z m2656 -65 c152 -16 338 -78 326 -108
-12 -32 -99 -172 -107 -172 -4 0 -29 9 -56 19 -148 59 -386 70 -552 28 -194
-50 -309 -120 -501 -308 -211 -205 -256 -223 -543 -217 -166 4 -188 6 -260 31
-199 70 -328 202 -394 403 -49 147 -50 136 18 160 l59 21 35 -71 c136 -275
517 -405 803 -276 78 35 131 72 263 180 166 137 267 198 412 249 112 39 221
59 369 69 15 1 72 -3 128 -8z m-5524 -287 c-93 -5 -125 -12 -125 -29 0 -8 4
-13 8 -10 5 3 9 -2 9 -11 0 -11 -8 -7 -24 13 l-23 29 28 6 c15 4 63 6 107 6
63 -1 67 -1 20 -4z m92 -9 c-3 -3 -12 -4 -19 -1 -8 3 -5 6 6 6 11 1 17 -2 13
-5z m148 -35 c31 -14 35 -18 18 -19 -13 0 -23 5 -23 11 0 6 -9 9 -20 6 -11 -3
-20 -2 -20 2 0 5 -15 13 -32 19 l-33 11 35 -5 c19 -4 53 -15 75 -25z m-300
-40 c-2 -34 0 -37 22 -34 13 1 26 -2 29 -6 3 -5 -2 -9 -10 -9 -10 0 -13 -6 -9
-16 4 -12 8 -13 13 -3 6 9 12 8 25 -4 15 -16 15 -17 -10 -17 -32 0 -90 59 -75
74 16 16 12 30 -4 17 -10 -8 -16 -9 -21 -1 -4 6 -1 9 7 8 7 -2 13 4 12 13 -1
9 4 16 11 16 8 0 11 -14 10 -38z m285 17 c0 -2 -7 -7 -16 -10 -8 -3 -12 -2 -9
4 6 10 25 14 25 6z m100 -12 c25 -15 25 -15 1 -8 -15 4 -27 1 -33 -7 -7 -10
-11 -11 -14 -3 -3 7 -15 10 -27 8 -21 -4 -21 -4 -2 4 11 5 26 7 34 4 9 -3 12
-1 7 6 -10 16 4 14 34 -4z m108 -62 c28 -19 52 -39 52 -45 0 -7 -4 -6 -9 2 -8
13 -12 13 -28 0 -16 -12 -17 -12 -6 2 15 19 7 30 -15 22 -10 -4 -13 -2 -8 5 4
7 1 12 -7 12 -7 0 -24 12 -38 26 -25 29 -23 28 59 -24z m5077 16 c22 -6 43
-11 47 -10 11 3 78 -28 78 -36 -1 -14 -39 -57 -52 -57 -7 0 -13 -7 -13 -15 0
-21 -74 -110 -88 -107 -7 1 -11 -5 -9 -14 1 -9 -7 -24 -18 -34 -22 -20 -28 -8
-7 15 6 8 3 7 -9 -3 -19 -16 -22 -16 -34 -2 -7 9 -10 19 -6 22 4 4 11 1 15 -6
6 -9 9 -5 9 13 0 28 -13 35 -22 11 -3 -8 -13 -15 -21 -15 -15 0 -15 -1 -1 -16
9 -8 16 -16 16 -17 0 -7 -86 6 -94 14 -5 4 -21 2 -35 -5 -14 -7 -47 -16 -73
-19 -26 -4 -56 -11 -65 -16 -50 -28 -183 -57 -143 -31 13 8 12 10 -5 11 -17 1
-17 2 -3 6 25 6 80 63 62 63 -8 0 -14 5 -14 10 0 6 -9 10 -20 10 -11 0 -20 -4
-20 -10 0 -5 -9 -10 -20 -10 -11 0 -20 5 -20 10 0 6 9 10 20 10 11 0 20 5 20
10 0 6 15 10 34 10 19 0 36 6 39 13 2 6 2 1 0 -12 -4 -26 21 -71 40 -71 7 0 8
3 2 8 -5 4 -11 12 -12 17 -1 6 -5 18 -8 28 -10 24 13 22 35 -3 15 -17 22 -19
44 -10 14 5 26 12 26 15 0 11 -28 35 -40 35 -6 0 -18 7 -26 15 -14 13 -13 15
5 15 11 0 26 -7 35 -15 8 -8 23 -15 34 -15 11 0 22 -7 26 -15 4 -11 18 -14 48
-13 l43 1 -42 4 c-24 2 -43 7 -43 11 0 4 18 6 41 4 38 -4 40 -3 37 19 -3 22
-8 24 -63 25 -122 2 -229 8 -212 12 9 2 17 8 17 14 0 5 -7 7 -16 4 -9 -3 -25
-6 -36 -6 -18 0 -19 -2 -7 -17 12 -16 12 -17 -1 -7 -8 6 -28 10 -45 9 -45 -3
-47 -4 -41 -14 9 -14 -3 -39 -22 -46 -14 -5 -14 -4 1 13 24 26 21 35 -5 14
-54 -43 -99 -92 -93 -101 4 -7 0 -8 -11 -4 -14 5 -16 3 -11 -11 4 -9 3 -15 -2
-11 -5 3 -12 -4 -16 -15 -3 -11 -11 -20 -16 -20 -38 0 132 177 234 243 15 9
27 15 27 12 0 -4 14 3 30 15 17 12 36 23 43 24 7 2 24 8 38 14 118 48 301 61
414 30z m-5481 -13 c3 -8 1 -15 -4 -15 -6 0 -10 7 -10 15 0 8 2 15 4 15 2 0 6
-7 10 -15z m39 -32 c-7 -2 -19 -2 -25 0 -7 3 -2 5 12 5 14 0 19 -2 13 -5z
m164 -29 c-3 -3 -12 -4 -19 -1 -8 3 -5 6 6 6 11 1 17 -2 13 -5z m34 -17 c-10
-9 -11 -8 -5 6 3 10 9 15 12 12 3 -3 0 -11 -7 -18z m299 -56 c0 -9 -52 44 -62
64 -6 11 5 2 26 -19 20 -22 36 -42 36 -45z m-250 59 c0 -5 -7 -10 -16 -10 -8
0 -12 5 -9 10 3 6 10 10 16 10 5 0 9 -4 9 -10z m-66 -26 c3 -8 2 -12 -4 -9 -6
3 -10 10 -10 16 0 14 7 11 14 -7z m110 -56 c-6 -9 -45 -1 -58 12 -6 6 -7 10 0
10 6 0 15 -5 22 -12 9 -9 12 -8 12 5 0 15 2 16 14 5 8 -7 12 -16 10 -20z m31
-8 c3 -5 1 -10 -4 -10 -6 0 -11 5 -11 10 0 6 2 10 4 10 3 0 8 -4 11 -10z m218
-26 c-3 -8 -7 -14 -10 -14 -3 0 -3 7 1 15 3 8 1 15 -4 15 -6 0 -10 5 -10 11 0
8 4 8 14 -1 8 -6 12 -18 9 -26z m-186 -3 c-1 -16 -4 -27 -6 -25 -2 2 -11 -1
-18 -8 -11 -8 -10 -2 3 25 10 20 19 37 20 37 2 0 2 -13 1 -29z m223 -33 c0 -5
11 -24 25 -42 26 -35 20 -56 -18 -56 -17 0 -17 1 -3 16 9 8 15 23 15 32 -1 15
-2 15 -6 0 -4 -17 -8 -20 -34 -22 -6 -1 -13 14 -14 33 -2 22 0 29 6 20 5 -8 9
-23 9 -34 1 -19 1 -19 12 -1 8 14 6 27 -6 54 -15 31 -15 34 -2 23 9 -8 16 -18
16 -23z m4225 14 c-3 -3 -11 0 -18 7 -9 10 -8 11 6 5 10 -3 15 -9 12 -12z
m-49 -62 c0 -12 -4 -16 -9 -11 -5 5 -6 14 -3 20 10 15 12 14 12 -9z m-4234
-27 c-6 -3 -10 -8 -8 -12 3 -4 -5 -7 -16 -7 -19 0 -19 1 2 18 13 10 26 16 29
12 3 -4 0 -9 -7 -11z m-96 -2 c12 10 13 9 8 -5 -4 -10 -13 -15 -21 -12 -8 3
-17 6 -19 6 -3 0 -2 5 2 12 6 9 9 9 12 0 3 -10 7 -10 18 -1z m41 -6 c0 -8 -4
-15 -9 -15 -4 0 -8 7 -8 15 0 8 4 15 8 15 5 0 9 -7 9 -15z m173 -15 c0 -5 -5
-10 -11 -10 -5 0 -7 5 -4 10 3 6 8 10 11 10 2 0 4 -4 4 -10z m1799 -27 c25
-21 65 -47 88 -59 l44 -20 -127 -120 c-204 -192 -341 -285 -517 -352 -118 -44
-198 -61 -327 -68 -111 -6 -258 15 -215 31 312 114 417 177 671 401 110 97
177 145 260 187 38 20 71 36 73 37 2 0 25 -17 50 -37z m-1770 -50 c11 -29 19
-53 16 -53 -5 0 -28 52 -40 91 -13 40 2 17 24 -38z m2760 11 c138 -34 289
-122 382 -221 51 -54 125 -160 117 -168 -2 -3 -55 -2 -118 2 l-113 6 -54 48
c-101 92 -216 133 -368 132 -108 0 -138 -8 -320 -79 -173 -67 -206 -83 -182
-83 9 -1 17 -6 17 -12 0 -6 -8 -8 -17 -5 -15 5 -15 4 1 -9 26 -20 13 -31 -13
-13 -12 8 -18 18 -14 21 3 4 -3 7 -15 7 -21 0 -20 -2 7 -28 l29 -27 -43 -44
-43 -43 -21 21 c-18 18 -28 20 -63 15 -30 -5 -39 -4 -34 4 4 7 14 12 22 12 8
0 14 6 14 14 0 15 29 30 39 21 3 -3 -1 -10 -9 -15 -8 -5 -12 -11 -9 -15 8 -8
69 15 69 27 0 5 -4 6 -10 3 -5 -3 -10 -2 -10 4 0 5 12 14 28 20 25 10 24 11
-14 6 -23 -3 -58 -12 -79 -21 -30 -12 -35 -18 -24 -26 10 -7 9 -8 -7 -3 -12 3
-45 -6 -80 -22 -32 -15 -65 -26 -71 -25 -8 2 -10 -3 -6 -14 5 -15 2 -16 -26
-11 -20 4 -30 3 -26 -3 3 -5 0 -7 -8 -5 -20 8 -89 -23 -81 -37 4 -7 3 -8 -5
-4 -6 4 -23 -1 -39 -12 -15 -11 -37 -23 -49 -26 -13 -4 -23 -14 -23 -22 0 -8
-5 -14 -11 -14 -23 0 0 26 44 50 54 29 230 168 338 267 231 212 353 286 554
332 69 16 272 13 344 -5z m1721 -129 c0 -3 -43 -41 -96 -84 l-96 -80 -293 -1
c-197 0 -296 3 -300 10 -4 7 3 9 19 6 14 -3 26 0 26 5 0 5 8 9 18 10 11 1 9 4
-8 9 -18 6 -8 8 40 9 49 0 61 -2 50 -10 -12 -9 -12 -10 3 -5 10 3 31 7 45 7
15 1 3 6 -28 12 l-55 10 35 8 c19 4 38 5 43 2 4 -2 19 3 32 11 22 15 25 15 25
1 0 -8 8 -15 18 -15 13 0 14 2 3 9 -11 7 -9 11 8 21 15 8 26 8 34 1 22 -17 77
2 77 27 0 8 3 12 7 9 3 -4 12 2 20 13 13 19 26 20 194 20 98 0 179 -2 179 -5z
m-480 -19 c0 -2 -7 -7 -16 -10 -8 -3 -12 -2 -9 4 6 10 25 14 25 6z m40 0 c0
-3 -4 -8 -10 -11 -5 -3 -10 -1 -10 4 0 6 5 11 10 11 6 0 10 -2 10 -4z m22 -14
c-7 -2 -12 -11 -12 -19 0 -9 -3 -14 -6 -10 -10 10 7 48 19 40 8 -5 8 -8 -1
-11z m-37 -20 c-3 -3 -11 0 -18 7 -9 10 -8 11 6 5 10 -3 15 -9 12 -12z m-110
-2 c3 -5 1 -10 -4 -10 -6 0 -11 5 -11 10 0 6 2 10 4 10 3 0 8 -4 11 -10z
m-145 -40 c0 -5 -5 -10 -11 -10 -5 0 -7 5 -4 10 3 6 8 10 11 10 2 0 4 -4 4
-10z m-1620 -150 c-6 -11 -15 -20 -20 -20 -6 0 -5 9 2 20 7 11 16 20 21 20 4
0 3 -9 -3 -20z m-180 -155 c0 -7 -8 -18 -17 -24 -10 -5 -15 -13 -10 -17 4 -4
17 1 28 12 l22 19 -18 -27 c-9 -16 -21 -28 -25 -28 -4 0 -12 -10 -19 -22 -8
-17 -10 -18 -5 -3 4 11 7 36 7 55 0 32 10 49 30 50 4 0 7 -7 7 -15z m-64 -72
c-2 -9 -8 -19 -14 -21 -16 -5 -15 25 1 31 6 3 13 6 14 6 1 1 0 -7 -1 -16z
m-461 -43 c-3 -5 -12 -10 -18 -10 -7 0 -6 4 3 10 19 12 23 12 15 0z m417 -12
c-27 -27 -10 -30 18 -3 41 40 38 24 -5 -22 -20 -21 -33 -30 -29 -20 3 9 2 17
-3 17 -5 0 -10 7 -10 15 0 8 4 12 8 10 4 -3 10 2 13 11 4 9 9 14 13 10 4 -3 1
-12 -5 -18z m-458 -13 c-4 -8 -13 -15 -21 -15 -8 0 -12 -4 -9 -9 4 -5 -5 -8
-19 -6 -14 1 -23 0 -20 -3 9 -10 -43 -30 -110 -41 -37 -7 -69 -10 -72 -8 -2 3
27 14 64 26 37 11 95 31 128 45 33 13 61 25 62 25 1 1 0 -6 -3 -14z m9 -52
c-7 -2 -19 -2 -25 0 -7 3 -2 5 12 5 14 0 19 -2 13 -5z m417 -3 c0 -5 -2 -10
-4 -10 -3 0 -8 5 -11 10 -3 6 -1 10 4 10 6 0 11 -4 11 -10z m-432 -11 c39 -2
-37 -17 -88 -17 l-55 0 44 9 c24 5 46 11 49 14 3 3 12 3 20 0 7 -3 21 -5 30
-6z m402 -4 c11 -13 10 -14 -4 -9 -9 3 -16 10 -16 15 0 13 6 11 20 -6z m-383
-21 c-3 -3 -12 -4 -19 -1 -8 3 -5 6 6 6 11 1 17 -2 13 -5z m319 -36 c-12 -7
-21 -7 -28 0 -6 6 0 10 18 10 23 0 24 -2 10 -10z m-96 -45 c0 -3 -6 -3 -14 0
-7 3 -23 -1 -35 -9 -13 -9 -21 -11 -21 -4 0 13 40 29 58 23 6 -3 12 -7 12 -10z
m-165 -36 c6 -5 3 -7 -7 -4 -9 3 -19 -1 -22 -9 -3 -8 -10 -14 -16 -14 -6 0 -4
7 4 16 9 8 16 20 16 26 0 7 3 7 8 2 4 -5 12 -13 17 -17z"/>
<path d="M4445 8082 c-35 -4 -65 -28 -65 -51 0 -9 9 -27 20 -41 l19 -25 321 0
322 0 19 24 c24 29 24 43 1 71 -17 21 -22 22 -312 23 -162 1 -308 0 -325 -1z"/>
<path d="M5533 8083 l-323 -3 -16 -24 c-14 -22 -14 -27 0 -54 8 -16 26 -32 38
-36 13 -3 166 -6 341 -6 l319 0 29 29 c16 16 29 34 29 39 0 21 -36 51 -65 54
-16 2 -175 2 -352 1z"/>
<path d="M5070 7663 c-49 -18 -66 -75 -32 -106 17 -15 57 -17 364 -17 l345 0
21 23 c34 36 28 73 -15 96 -22 11 -652 15 -683 4z"/>
<path d="M5873 7663 c-33 -4 -63 -34 -63 -63 0 -9 10 -26 23 -38 22 -21 33
-22 169 -22 128 0 147 2 161 18 23 25 21 65 -4 88 -18 16 -38 19 -138 20 -64
1 -131 0 -148 -3z"/>
<path d="M6593 7630 c-27 -11 -39 -53 -25 -85 14 -31 52 -38 182 -33 87 2 104
6 116 22 20 28 17 63 -6 86 -18 18 -33 20 -132 19 -62 0 -123 -4 -135 -9z"/>
<path d="M6018 6603 c12 -2 32 -2 45 0 12 2 2 4 -23 4 -25 0 -35 -2 -22 -4z"/>
<path d="M6598 6587 c20 -6 36 -6 42 -1 5 5 -8 9 -33 10 l-42 1 33 -10z"/>
<path d="M6020 6525 c-14 -16 -10 -18 14 -9 9 3 16 10 16 15 0 14 -16 11 -30
-6z"/>
<path d="M6730 6536 c0 -2 7 -9 15 -16 9 -7 15 -8 15 -2 0 5 -7 12 -15 16 -8
3 -15 4 -15 2z"/>
<path d="M2583 6603 c15 -2 39 -2 55 0 15 2 2 4 -28 4 -30 0 -43 -2 -27 -4z"/>
<path d="M3240 6492 c0 -18 5 -32 10 -32 6 0 8 11 4 28 -10 39 -14 40 -14 4z"/>
<path d="M8035 6230 c-19 -8 -19 -9 2 -9 12 -1 25 4 28 9 7 12 -2 12 -30 0z"/>
<path d="M8069 6217 c-7 -7 -26 -12 -43 -10 -28 2 -27 1 9 -11 22 -7 49 -10
60 -7 17 4 18 6 3 9 -27 5 -21 20 10 25 l27 4 -27 2 c-15 0 -33 -5 -39 -12z"/>
<path d="M8128 6193 c7 -3 16 -2 19 1 4 3 -2 6 -13 5 -11 0 -14 -3 -6 -6z"/>
<path d="M7950 6020 c0 -5 5 -10 10 -10 6 0 10 5 10 10 0 6 -4 10 -10 10 -5 0
-10 -4 -10 -10z"/>
<path d="M8411 5954 c0 -11 3 -14 6 -6 3 7 2 16 -1 19 -3 4 -6 -2 -5 -13z"/>
<path d="M4674 6550 c0 -13 4 -16 10 -10 7 7 7 13 0 20 -6 6 -10 3 -10 -10z"/>
<path d="M4962 6180 c0 -14 2 -19 5 -12 2 6 2 18 0 25 -3 6 -5 1 -5 -13z"/>
<path d="M7286 6371 c-4 -6 0 -14 8 -17 9 -3 16 -10 16 -15 0 -15 -18 -10 -38
12 -18 18 -20 19 -26 3 -4 -11 0 -23 9 -31 8 -7 10 -8 5 -1 -18 22 -10 29 14
12 16 -10 31 -12 40 -7 13 7 12 11 -3 32 -12 16 -20 20 -25 12z"/>
<path d="M7170 5951 c0 -5 7 -11 15 -15 8 -3 15 -1 15 3 0 5 -7 11 -15 15 -8
3 -15 1 -15 -3z"/>
<path d="M2112 6010 c0 -14 2 -19 5 -12 2 6 2 18 0 25 -3 6 -5 1 -5 -13z"/>
<path d="M1741 5944 c0 -11 3 -14 6 -6 3 7 2 16 -1 19 -3 4 -6 -2 -5 -13z"/>
<path d="M2140 5941 c0 -6 4 -13 10 -16 6 -3 7 1 4 9 -7 18 -14 21 -14 7z"/>
<path d="M6983 6195 c0 -22 2 -30 4 -17 2 12 2 30 0 40 -3 9 -5 -1 -4 -23z"/>
<path d="M7383 6268 c-1 -10 3 -18 9 -16 18 6 21 25 5 31 -8 3 -13 -3 -14 -15z"/>
<path d="M6781 6214 c0 -11 3 -14 6 -6 3 7 2 16 -1 19 -3 4 -6 -2 -5 -13z"/>
<path d="M5906 5967 c3 -10 9 -15 12 -12 3 3 0 11 -7 18 -10 9 -11 8 -5 -6z"/>
<path d="M6690 6080 c0 -5 5 -10 11 -10 5 0 7 5 4 10 -3 6 -8 10 -11 10 -2 0
-4 -4 -4 -10z"/>
<path d="M7920 6091 c0 -6 4 -13 10 -16 6 -3 7 1 4 9 -7 18 -14 21 -14 7z"/>
<path d="M5728 6103 c7 -3 16 -2 19 1 4 3 -2 6 -13 5 -11 0 -14 -3 -6 -6z"/>
<path d="M3225 6003 c-4 -43 -12 -84 -17 -90 -7 -9 -7 -13 1 -13 6 0 11 5 11
11 0 5 5 7 10 4 6 -4 10 25 10 79 0 47 -2 86 -4 86 -2 0 -7 -35 -11 -77z"/>
<path d="M3133 5316 c-93 -30 -162 -105 -188 -202 -30 -114 -12 -209 56 -294
131 -166 383 -131 480 66 32 66 34 196 3 265 -28 59 -76 114 -131 146 -54 31
-155 40 -220 19z"/>
<path d="M5926 4932 c-13 -26 -35 -75 -49 -109 l-25 -62 94 -3 c90 -3 94 -2
88 17 -10 38 -76 205 -80 205 -2 0 -14 -21 -28 -48z"/>
<path d="M6077 4337 c-6 -17 15 -68 36 -86 24 -20 22 4 -3 36 -26 33 -17 44
10 13 11 -13 23 -20 28 -15 4 4 1 10 -5 12 -19 7 -16 33 5 35 51 4 72 3 72 -5
0 -4 -15 -7 -32 -5 -28 3 -32 0 -30 -17 2 -11 9 -23 14 -26 6 -4 11 -31 12
-60 1 -32 6 -54 13 -57 18 -5 27 25 16 51 -8 16 -7 26 3 35 18 17 24 15 24 -8
0 -17 7 -20 40 -20 29 0 40 -4 40 -15 0 -11 11 -15 40 -15 36 0 40 3 40 24 0
14 5 28 10 31 6 3 10 2 10 -3 0 -6 9 -8 20 -5 11 3 20 12 20 19 0 8 5 14 10
14 6 0 10 8 11 18 0 15 1 14 8 -3 7 -17 8 -17 15 8 13 53 -2 57 -222 57 -155
0 -201 -3 -205 -13z m376 -14 c-7 -2 -19 -2 -25 0 -7 3 -2 5 12 5 14 0 19 -2
13 -5z"/>
<path d="M6151 4254 c0 -11 3 -14 6 -6 3 7 2 16 -1 19 -3 4 -6 -2 -5 -13z"/>
<path d="M3495 3824 c-11 -8 -19 -20 -17 -26 2 -6 -3 -15 -10 -20 -10 -7 -10
-9 2 -5 8 2 14 12 14 21 -2 18 7 21 22 6 7 -7 10 -2 10 15 0 14 0 25 0 25 -1
0 -10 -8 -21 -16z"/>
<path d="M7608 2856 c-43 -4 -78 -12 -78 -16 0 -4 24 -10 53 -14 80 -9 97 -8
97 9 0 11 11 15 38 15 20 0 42 4 49 8 15 10 -66 9 -159 -2z"/>
<path d="M7440 2840 c0 -12 17 -12 45 0 17 7 15 9 -12 9 -18 1 -33 -3 -33 -9z"/>
<path d="M7770 2841 c0 -5 17 -8 38 -6 31 4 33 3 12 -4 -22 -8 -22 -9 -4 -10
11 -1 28 5 37 12 15 10 10 12 -33 15 -28 2 -50 -1 -50 -7z"/>
<path d="M7410 2830 c0 -5 5 -10 10 -10 6 0 10 5 10 10 0 6 -4 10 -10 10 -5 0
-10 -4 -10 -10z"/>
<path d="M7490 2819 c20 -7 17 -8 -15 -4 -28 3 -35 2 -25 -5 24 -16 70 -12 70
5 0 10 -9 15 -27 14 l-28 -1 25 -9z"/>
<path d="M7713 2816 c-3 -6 -3 -8 2 -4 4 4 14 3 20 -2 8 -7 21 -7 36 -1 15 6
18 10 9 12 -50 6 -61 5 -67 -5z"/>
<path d="M7362 2807 c-12 -7 -20 -16 -16 -20 3 -3 13 0 21 8 9 9 25 13 41 10
23 -4 24 -4 7 4 -26 12 -26 12 -53 -2z"/>
<path d="M7858 2813 c7 -3 16 -2 19 1 4 3 -2 6 -13 5 -11 0 -14 -3 -6 -6z"/>
<path d="M7760 2784 c0 -17 22 -14 28 4 2 7 -3 12 -12 12 -9 0 -16 -7 -16 -16z"/>
<path d="M7315 2780 c-3 -5 -17 -10 -31 -10 -13 0 -24 -5 -24 -11 0 -5 -5 -7
-12 -3 -7 4 -8 3 -4 -4 4 -7 2 -12 -5 -12 -7 0 -10 -2 -7 -5 7 -8 98 34 98 45
0 13 -7 13 -15 0z"/>
<path d="M7425 2770 c-4 -6 5 -10 19 -10 14 0 26 5 26 10 0 6 -9 10 -19 10
-11 0 -23 -4 -26 -10z"/>
<path d="M7746 2713 c-3 -4 -6 -13 -6 -22 1 -13 2 -13 11 2 10 17 11 17 27 -1
9 -10 13 -12 9 -5 -5 6 -6 16 -4 20 6 10 -28 15 -37 6z"/>
<path d="M7500 2628 c-21 -9 -22 -12 -8 -15 10 -3 25 3 34 11 18 18 10 19 -26
4z"/>
<path d="M7338 2553 c7 -3 16 -2 19 1 4 3 -2 6 -13 5 -11 0 -14 -3 -6 -6z"/>
<path d="M5075 2030 c3 -5 8 -10 11 -10 2 0 4 5 4 10 0 6 -5 10 -11 10 -5 0
-7 -4 -4 -10z"/>
<path d="M5055 2000 c-8 -13 5 -13 25 0 13 8 13 10 -2 10 -9 0 -20 -4 -23 -10z"/>
</g>
</svg>
